# Blender 4.5.3 LTS
# www.blender.org
o Box
v -1.748617 1.748617 -2.000000
v -2.000000 1.748617 -1.748617
v -1.748617 2.000000 -1.748617
v -1.926372 1.748617 -1.926372
v -1.893753 1.893753 -1.893753
v -1.926372 1.926372 -1.748617
v -1.748617 1.926372 -1.926372
v -2.000000 1.748617 1.748617
v -1.748617 1.748617 2.000000
v -1.748617 2.000000 1.748617
v -1.926372 1.748617 1.926372
v -1.893753 1.893753 1.893753
v -1.748617 1.926372 1.926372
v -1.926372 1.926372 1.748617
v 1.748617 1.748617 -2.000000
v 1.748617 2.000000 -1.748617
v 2.000000 1.748617 -1.748617
v 1.748617 1.926372 -1.926372
v 1.893753 1.893753 -1.893753
v 1.926372 1.926372 -1.748617
v 1.926372 1.748617 -1.926372
v 1.748617 1.748617 2.000000
v 2.000000 1.748617 1.748617
v 1.748617 2.000000 1.748617
v 1.926372 1.748617 1.926372
v 1.893753 1.893753 1.893753
v 1.926372 1.926372 1.748617
v 1.748617 1.926372 1.926372
v -1.748617 -1.748617 -2.000000
v -1.748617 -2.000000 -1.748617
v -2.000000 -1.748617 -1.748617
v -1.748617 -1.926372 -1.926372
v -1.893753 -1.893753 -1.893753
v -1.926372 -1.926372 -1.748617
v -1.926372 -1.748617 -1.926372
v -1.748617 -1.748617 2.000000
v -2.000000 -1.748617 1.748617
v -1.748617 -2.000000 1.748617
v -1.926372 -1.748617 1.926372
v -1.893753 -1.893753 1.893753
v -1.926372 -1.926372 1.748617
v -1.748617 -1.926372 1.926372
v 1.748617 -1.748617 -2.000000
v 2.000000 -1.748617 -1.748617
v 1.748617 -2.000000 -1.748617
v 1.926372 -1.748617 -1.926372
v 1.893753 -1.893753 -1.893753
v 1.926372 -1.926372 -1.748617
v 1.748617 -1.926372 -1.926372
v 1.748617 -1.748617 2.000000
v 1.748617 -2.000000 1.748617
v 2.000000 -1.748617 1.748617
v 1.748617 -1.926372 1.926372
v 1.893753 -1.893753 1.893753
v 1.926372 -1.926372 1.748617
v 1.926372 -1.748617 1.926372
vn -0.1794 0.1794 -0.9673
vn -0.9673 0.1794 -0.1794
vn -0.1794 0.9673 -0.1794
vn -0.6993 0.1479 -0.6993
vn -0.5774 0.5774 -0.5773
vn -0.6993 0.6993 -0.1479
vn -0.1479 0.6993 -0.6993
vn -0.9673 0.1794 0.1794
vn -0.1794 0.1794 0.9673
vn -0.1794 0.9673 0.1794
vn -0.6993 0.1479 0.6993
vn -0.5774 0.5773 0.5773
vn -0.1479 0.6993 0.6993
vn -0.6993 0.6993 0.1479
vn 0.1794 0.1794 -0.9673
vn 0.1794 0.9673 -0.1794
vn 0.9673 0.1794 -0.1794
vn 0.1479 0.6993 -0.6993
vn 0.5774 0.5774 -0.5773
vn 0.6993 0.6993 -0.1479
vn 0.6993 0.1479 -0.6993
vn 0.1794 0.1794 0.9673
vn 0.9673 0.1794 0.1794
vn 0.1794 0.9673 0.1794
vn 0.6993 0.1479 0.6993
vn 0.5774 0.5773 0.5774
vn 0.6993 0.6993 0.1479
vn 0.1479 0.6993 0.6993
vn -0.1794 -0.1794 -0.9673
vn -0.1794 -0.9673 -0.1794
vn -0.9673 -0.1794 -0.1794
vn -0.1479 -0.6993 -0.6993
vn -0.5774 -0.5774 -0.5774
vn -0.6993 -0.6993 -0.1479
vn -0.6993 -0.1479 -0.6993
vn -0.1794 -0.1794 0.9673
vn -0.9673 -0.1794 0.1794
vn -0.1794 -0.9673 0.1794
vn -0.6993 -0.1479 0.6993
vn -0.5774 -0.5774 0.5773
vn -0.6993 -0.6993 0.1479
vn -0.1479 -0.6993 0.6993
vn 0.1794 -0.1794 -0.9673
vn 0.9673 -0.1794 -0.1794
vn 0.1794 -0.9673 -0.1794
vn 0.6993 -0.1479 -0.6993
vn 0.5774 -0.5774 -0.5774
vn 0.6993 -0.6993 -0.1479
vn 0.1479 -0.6993 -0.6993
vn 0.1794 -0.1794 0.9673
vn 0.1794 -0.9673 0.1794
vn 0.9673 -0.1794 0.1794
vn 0.1479 -0.6993 0.6993
vn 0.5774 -0.5774 0.5773
vn 0.6993 -0.6993 0.1479
vn 0.6993 -0.1479 0.6993
s 1
f 1//1 5//5 7//7
f 2//2 5//5 4//4
f 3//3 5//5 6//6
f 8//8 12//12 14//14
f 9//9 12//12 11//11
f 10//10 12//12 13//13
f 15//15 19//19 21//21
f 16//16 19//19 18//18
f 17//17 19//19 20//20
f 22//22 26//26 28//28
f 23//23 26//26 25//25
f 24//24 26//26 27//27
f 29//29 33//33 35//35
f 30//30 33//33 32//32
f 31//31 33//33 34//34
f 36//36 40//40 42//42
f 37//37 40//40 39//39
f 38//38 40//40 41//41
f 43//43 47//47 49//49
f 44//44 47//47 46//46
f 45//45 47//47 48//48
f 50//50 54//54 56//56
f 51//51 54//54 53//53
f 52//52 54//54 55//55
f 1//1 18//18 15//15
f 7//7 16//16 18//18
f 8//8 6//6 2//2
f 14//14 3//3 6//6
f 22//22 13//13 9//9
f 28//28 10//10 13//13
f 17//17 27//27 23//23
f 20//20 24//24 27//27
f 15//15 46//46 43//43
f 21//21 44//44 46//46
f 50//50 25//25 22//22
f 56//56 23//23 25//25
f 45//45 55//55 51//51
f 48//48 52//52 55//55
f 43//43 32//32 29//29
f 49//49 30//30 32//32
f 36//36 53//53 50//50
f 42//42 51//51 53//53
f 31//31 41//41 37//37
f 34//34 38//38 41//41
f 29//29 4//4 1//1
f 35//35 2//2 4//4
f 9//9 39//39 36//36
f 11//11 37//37 39//39
f 43//43 1//1 15//15
f 10//10 16//16 3//3
f 37//37 2//2 31//31
f 22//22 36//36 50//50
f 23//23 44//44 17//17
f 51//51 30//30 45//45
f 1//1 4//4 5//5
f 2//2 6//6 5//5
f 3//3 7//7 5//5
f 8//8 11//11 12//12
f 9//9 13//13 12//12
f 10//10 14//14 12//12
f 15//15 18//18 19//19
f 16//16 20//20 19//19
f 17//17 21//21 19//19
f 22//22 25//25 26//26
f 23//23 27//27 26//26
f 24//24 28//28 26//26
f 29//29 32//32 33//33
f 30//30 34//34 33//33
f 31//31 35//35 33//33
f 36//36 39//39 40//40
f 37//37 41//41 40//40
f 38//38 42//42 40//40
f 43//43 46//46 47//47
f 44//44 48//48 47//47
f 45//45 49//49 47//47
f 50//50 53//53 54//54
f 51//51 55//55 54//54
f 52//52 56//56 54//54
f 1//1 7//7 18//18
f 7//7 3//3 16//16
f 8//8 14//14 6//6
f 14//14 10//10 3//3
f 22//22 28//28 13//13
f 28//28 24//24 10//10
f 17//17 20//20 27//27
f 20//20 16//16 24//24
f 15//15 21//21 46//46
f 21//21 17//17 44//44
f 50//50 56//56 25//25
f 56//56 52//52 23//23
f 45//45 48//48 55//55
f 48//48 44//44 52//52
f 43//43 49//49 32//32
f 49//49 45//45 30//30
f 36//36 42//42 53//53
f 42//42 38//38 51//51
f 31//31 34//34 41//41
f 34//34 30//30 38//38
f 29//29 35//35 4//4
f 35//35 31//31 2//2
f 9//9 11//11 39//39
f 11//11 8//8 37//37
f 43//43 29//29 1//1
f 10//10 24//24 16//16
f 37//37 8//8 2//2
f 22//22 9//9 36//36
f 23//23 52//52 44//44
f 51//51 38//38 30//30
